<svg xmlns="http://www.w3.org/2000/svg" xmlns:xlink="http://www.w3.org/1999/xlink" width="595.276" height="841.89" viewBox="0 0 595.276 841.89">
<defs>
<clipPath id="clip-0">
<path clip-rule="nonzero" d="M 0 0.45 L 594.55 0.45 L 594.55 841.32 L 0 841.32 Z M 0 0.45 "/>
</clipPath>
<clipPath id="clip-1">
<path clip-rule="nonzero" d="M 401 653 L 594.55 653 L 594.55 841.32 L 401 841.32 Z M 401 653 "/>
</clipPath>
</defs>
<g clip-path="url(#clip-0)">
<path fill-rule="nonzero" fill="rgb(97.770691%, 69.985962%, 82.359314%)" fill-opacity="1" d="M 0 841.32 L 594.55 841.32 L 594.55 0.45 L 0 0.45 Z M 0 841.32 "/>
</g>
<path fill-rule="nonzero" fill="rgb(85.786438%, 13.197327%, 27.250671%)" fill-opacity="1" d="M 13.58 17.44 L 67.94 3.75 L 186.85 10.60 L 362.96 7.81 L 480.73 10.59 L 555.48 4.98 L 581.52 10.59 L 573.03 55.66 L 582.10 118.80 L 578.98 255.83 L 588.32 360.01 L 583.22 398.24 L 578.98 470.43 C 578.98 470.43 584 503.27 585.59 503.27 C 587.19 503.27 587.19 558.20 587.19 558.20 L 569.63 626.15 L 574.16 653.33 L 569.07 706.13 L 577.56 749.59 L 563.41 774.08 L 557.74 797.44 L 533.67 822.21 L 493.19 819.24 L 433.17 823.76 C 433.17 823.76 325.02 827.16 323.89 827.16 C 322.75 827.16 207.24 833.30 207.24 833.30 L 131.93 825.75 L 82.10 833.30 C 82.10 833.30 41.05 826.31 39.63 826.03 C 38.22 825.75 13.46 826.60 13.46 826.60 L 13.44 760.91 L 24.06 657.29 L 12.95 533.28 L 15.57 433.06 L 15.28 364.55 L 21.51 307.92 L 14.15 177.69 L 6.12 123.89 L 18.12 87.65 L 6.12 32.16 Z M 13.58 17.44 "/>
<path fill-rule="nonzero" fill="rgb(97.770691%, 69.985962%, 82.359314%)" fill-opacity="1" d="M 90.39 150.11 L 82.19 180.40 L 81.62 303.99 L 95.77 344.33 L 145.60 355.66 L 397.58 340.93 L 448.54 349.42 L 514.79 313.19 L 519.32 194.84 L 479.69 132.55 L 429.80 108.21 L 219.78 123.78 L 145.04 126.69 Z M 90.39 150.11 "/>
<path fill-rule="nonzero" fill="rgb(97.770691%, 69.985962%, 82.359314%)" fill-opacity="1" d="M 78.08 397 L 151.90 358.67 L 191.75 357.35 L 312.54 367.74 L 335.61 409.73 L 337.93 497.97 L 312.54 527.23 L 159.86 535.72 L 88.70 526.09 L 72.93 455.50 Z M 78.08 397 "/>
<path fill-rule="nonzero" fill="rgb(97.770691%, 69.985962%, 82.359314%)" fill-opacity="1" d="M 83.89 554.47 L 135.98 532.32 L 262.39 540.75 C 262.39 540.75 286.19 549.72 287.89 550.25 C 289.59 550.78 310.37 580.31 310.37 580.31 L 321.69 616.71 L 307.54 701.10 L 307.54 721.14 L 244.69 732.03 L 120.69 729.21 C 120.69 729.21 82.64 710.85 82.64 709.53 C 82.64 708.22 76.52 590.86 76.52 590.86 Z M 83.89 554.47 "/>
<path fill-rule="nonzero" fill="rgb(85.786438%, 13.197327%, 27.250671%)" fill-opacity="1" stroke-width="6" stroke-linecap="butt" stroke-linejoin="miter" stroke="rgb(97.770691%, 69.985962%, 82.359314%)" stroke-opacity="1" stroke-miterlimit="4" d="M -0.00 -0.00 L -8.22 -30.33 L -8.78 -154.07 L 5.38 -194.45 L 55.27 -205.79 L 307.56 -191.05 L 358.58 -199.55 L 424.91 -163.27 L 429.45 -44.78 L 389.76 17.57 L 339.81 41.95 L 129.54 26.36 L 54.71 23.44 Z M -0.00 -0.00 " transform="matrix(0.998785, 0, 0, -0.998785, 83.520419, 136.382197)"/>
<path fill-rule="nonzero" fill="rgb(85.786438%, 13.197327%, 27.250671%)" fill-opacity="1" d="M 82.95 104.67 L 90.03 94.48 L 97.10 87.12 L 106.17 85.42 L 116.92 86.55 L 123.72 88.53 L 134.19 88.81 L 144.67 89.10 L 156.84 87.96 L 168.73 89.10 L 180.06 93.34 L 183.74 93.06 L 187.70 87.12 L 195.63 85.42 L 210.64 97.59 L 210.64 101.27 L 201.01 108.63 L 197.05 111.75 L 196.76 115.71 L 200.16 119.96 L 202.42 129.01 L 203.84 136.66 L 201.01 140.06 L 177.55 144.59 L 97.10 146.00 L 94.56 135.81 L 89.18 134.68 L 84.65 131.85 C 84.65 131.85 84.65 121.94 83.80 121.66 C 82.95 121.37 82.95 108.07 82.95 108.07 Z M 82.95 104.67 "/>
<path fill-rule="nonzero" fill="rgb(97.770691%, 69.985962%, 82.359314%)" fill-opacity="1" d="M 217.09 99.11 C 207.17 93.68 199.01 85.52 193.58 75.60 C 190.31 81.59 186.03 86.93 180.98 91.43 C 174.41 87.15 150.87 86.03 128.08 87.25 L 109.00 78.21 L 89.85 90.66 L 90.57 92.08 C 83.54 93.89 79.16 96.10 79.27 98.64 L 80.81 132.19 C 80.92 134.69 85.36 136.48 92.34 137.64 C 91.25 141.71 90.74 145.96 90.89 150.32 L 212.36 146.07 C 211.94 134.26 206.76 123.57 198.39 115.22 C 203.40 108.62 209.76 103.12 217.09 99.11 "/>
<path fill-rule="nonzero" fill="rgb(85.786438%, 13.197327%, 27.250671%)" fill-opacity="1" stroke-width="6" stroke-linecap="butt" stroke-linejoin="miter" stroke="rgb(97.770691%, 69.985962%, 82.359314%)" stroke-opacity="1" stroke-miterlimit="4" d="M -0.00 -0.00 L 73.90 38.36 L 113.80 39.69 L 234.74 29.28 L 257.83 -12.75 L 260.16 -101.09 L 234.74 -130.38 L 81.87 -138.89 L 10.62 -129.25 L -5.15 -58.57 Z M -0.00 -0.00 " transform="matrix(0.998785, 0, 0, -0.998785, 71.207894, 383.268624)"/>
<path fill-rule="nonzero" fill="rgb(85.786438%, 13.197327%, 27.250671%)" fill-opacity="1" stroke-width="6" stroke-linecap="butt" stroke-linejoin="miter" stroke="rgb(97.770691%, 69.985962%, 82.359314%)" stroke-opacity="1" stroke-miterlimit="4" d="M 0.00 -0.00 L 52.15 22.17 L 178.71 13.73 C 178.71 13.73 202.55 4.75 204.25 4.22 C 205.95 3.69 226.76 -25.87 226.76 -25.87 L 238.09 -62.31 L 223.92 -146.80 L 223.92 -166.87 L 161.00 -177.77 L 36.85 -174.95 C 36.85 -174.95 -1.24 -156.57 -1.24 -155.25 C -1.24 -153.93 -7.37 -36.43 -7.37 -36.43 Z M 0.00 -0.00 " transform="matrix(0.998785, 0, 0, -0.998785, 77.010337, 540.741199)"/>
<path fill-rule="nonzero" fill="rgb(97.770691%, 69.985962%, 82.359314%)" fill-opacity="1" d="M 345.30 391.97 L 339.73 508.88 L 334.52 606.48 L 427.16 620.14 L 521.29 611.35 L 530.68 513.43 L 529.64 455.21 L 530.04 369.51 L 456.18 353.81 L 390.67 354.12 L 359.44 360.94 Z M 345.30 391.97 "/>
<path fill-rule="nonzero" fill="rgb(85.786438%, 13.197327%, 27.250671%)" fill-opacity="1" d="M 374.90 508.98 L 423.60 501.33 L 507.97 506.42 L 517.59 547.36 L 511.37 576.92 L 433.23 588.25 L 366.97 580.04 L 366.60 540.01 Z M 374.90 508.98 "/>
<path fill-rule="nonzero" fill="rgb(97.770691%, 69.985962%, 82.359314%)" fill-opacity="1" stroke-width="1" stroke-linecap="butt" stroke-linejoin="miter" stroke="rgb(85.786438%, 13.197327%, 27.250671%)" stroke-opacity="1" stroke-miterlimit="4" d="M -0.00 -0.00 L 48.75 7.65 L 133.22 2.55 L 142.86 -38.43 L 136.63 -68.02 L 58.39 -79.37 L -7.93 -71.15 L -8.30 -31.07 Z M -0.00 -0.00 " transform="matrix(0.998785, 0, 0, -0.998785, 370.887511, 503.381637)"/>
<path fill-rule="nonzero" fill="rgb(85.786438%, 13.197327%, 27.250671%)" fill-opacity="1" d="M 87.76 365.03 L 91.44 353.99 L 134.48 350.59 L 177.51 348.04 L 182.89 335.30 L 189.40 331.05 L 205.26 331.05 L 209.79 334.17 L 213.64 344.08 L 218.57 357.10 L 222.81 365.03 L 225.26 380.60 L 221.96 385.13 L 182.04 390.51 L 110.13 391.92 L 96.54 391.92 L 91.73 390.51 L 87.76 379.18 Z M 87.76 365.03 "/>
<path fill-rule="nonzero" fill="rgb(97.770691%, 69.985962%, 82.359314%)" fill-opacity="1" d="M 187.66 349.75 C 188.06 348.44 187.51 346.84 186.42 346.28 C 185.80 348.16 185.17 350.05 184.55 351.94 C 185.83 352.10 187.24 351.10 187.66 349.75 "/>
<path fill-rule="nonzero" fill="rgb(97.770691%, 69.985962%, 82.359314%)" fill-opacity="1" d="M 188.45 339.25 C 188.64 339.35 188.85 339.44 189.05 339.53 C 193.89 341.77 197.97 344.99 201.28 349.17 C 202.77 351.04 204.03 353.06 205.08 355.21 C 205.31 355.67 205.62 356.04 206.12 356.23 C 206.79 356.48 207.55 356.29 208.06 355.74 C 208.58 355.19 208.68 354.46 208.32 353.71 C 204.40 345.61 198.31 339.76 190.06 336.17 C 189.82 336.06 189.55 336.02 189.30 335.95 C 188.48 335.99 187.79 336.51 187.58 337.30 C 187.38 338.05 187.74 338.86 188.45 339.25 "/>
<path fill-rule="nonzero" fill="rgb(97.770691%, 69.985962%, 82.359314%)" fill-opacity="1" d="M 192.52 357.12 C 191.14 357.66 190.08 359.11 190.11 360.46 C 192.30 359.65 194.46 358.83 196.64 358.02 C 195.72 356.94 193.96 356.57 192.52 357.12 "/>
<path fill-rule="nonzero" fill="rgb(97.770691%, 69.985962%, 82.359314%)" fill-opacity="1" d="M 181.77 363.59 C 183.73 362.85 185.70 362.10 187.67 361.37 C 187.87 361.30 187.94 361.21 187.94 361.00 C 187.94 360.56 187.92 360.10 188.01 359.67 C 188.53 357.22 189.99 355.56 192.41 354.93 C 194.85 354.30 196.94 355.02 198.58 356.95 C 198.74 357.14 198.85 357.20 199.10 357.10 C 200.28 356.64 201.48 356.21 202.67 355.76 C 202.75 355.73 202.82 355.69 202.92 355.64 C 199.54 349.22 194.60 344.49 188.04 341.41 C 187.73 342.35 187.43 343.23 187.13 344.14 C 187.25 344.21 187.33 344.26 187.42 344.32 C 189.45 345.60 190.38 348.01 189.71 350.29 C 189.01 352.72 186.61 354.33 184.13 354.05 C 183.94 354.02 183.82 354.05 183.76 354.26 C 183.69 354.54 183.59 354.81 183.5 355.08 C 182.64 357.66 181.79 360.23 180.93 362.80 C 180.84 363.07 180.84 363.30 181.06 363.50 C 181.27 363.69 181.50 363.69 181.77 363.59 M 196.57 351.05 C 196.96 350.81 197.51 350.83 197.82 351.17 C 198.28 351.67 198.44 352.32 198.63 352.83 C 198.63 353.43 198.33 353.83 197.87 353.98 C 197.43 354.11 196.94 353.96 196.71 353.56 C 196.47 353.12 196.26 352.66 196.10 352.20 C 195.95 351.77 196.18 351.28 196.57 351.05 M 190.98 345.86 C 191.27 345.35 191.89 345.17 192.42 345.46 C 192.77 345.64 193.12 345.84 193.44 346.06 C 193.84 346.33 193.98 346.82 193.83 347.27 C 193.68 347.70 193.27 347.99 192.80 348.02 C 192.62 347.95 192.42 347.90 192.25 347.81 C 191.96 347.66 191.67 347.49 191.39 347.32 C 190.86 347.00 190.69 346.38 190.98 345.86 M 190.94 351.58 C 191.32 351.40 191.71 351.25 192.11 351.12 C 192.59 350.96 193.10 351.19 193.33 351.62 C 193.57 352.04 193.51 352.66 193.10 352.91 C 192.59 353.22 192.01 353.41 191.65 353.57 C 190.93 353.57 190.51 353.25 190.39 352.78 C 190.27 352.30 190.49 351.79 190.94 351.58 M 183.53 358.64 C 183.66 358.07 184.23 357.74 184.84 357.87 C 185.19 357.95 185.55 358.03 185.90 358.13 C 186.39 358.27 186.68 358.67 186.67 359.16 C 186.66 359.82 186.06 360.32 185.42 360.19 C 185.05 360.11 184.68 360.02 184.32 359.92 C 183.71 359.76 183.39 359.22 183.53 358.64 "/>
<path fill-rule="nonzero" fill="rgb(97.770691%, 69.985962%, 82.359314%)" fill-opacity="1" d="M 227.99 350.41 C 227.90 348.57 224.32 347.20 218.34 346.23 L 208.34 328.90 L 182.53 328.90 L 173.54 344.47 C 131.84 345.30 81.48 350.66 81.82 357.62 L 83.43 390.21 C 84.01 402.05 230.18 394.83 229.60 383 Z M 210.68 343.80 C 210.67 344.41 210.19 344.85 209.55 344.85 C 209.33 344.85 209.12 344.85 208.91 344.85 L 208.91 344.83 C 208.67 344.83 208.42 344.85 208.18 344.83 C 207.53 344.78 207.11 344.31 207.14 343.69 C 207.17 343.11 207.63 342.71 208.27 342.71 C 208.70 342.71 209.13 342.71 209.56 342.73 C 210.21 342.75 210.68 343.20 210.68 343.80 M 204.96 338.30 C 205.58 337.69 206.21 337.08 206.85 336.48 C 207.19 336.16 207.60 336.10 208.02 336.30 C 208.41 336.49 208.62 336.82 208.70 337.30 C 208.57 337.54 208.48 337.83 208.29 338.02 C 207.69 338.64 207.06 339.23 206.42 339.82 C 205.98 340.24 205.35 340.22 204.93 339.79 C 204.53 339.38 204.53 338.73 204.96 338.30 M 200.07 334.91 C 200.11 334.27 200.59 333.84 201.19 333.87 C 201.76 333.90 202.18 334.37 202.19 334.99 C 202.19 335.21 202.19 335.43 202.19 335.65 L 202.16 335.65 C 202.16 335.89 202.17 336.14 202.16 336.38 C 202.13 336.98 201.66 337.42 201.07 337.41 C 200.50 337.40 200.05 336.95 200.04 336.37 C 200.03 335.88 200.04 335.39 200.07 334.91 M 178.91 362.14 C 179.82 359.40 180.73 356.66 181.64 353.92 C 183.13 349.42 184.62 344.92 186.12 340.43 C 186.19 340.21 186.20 340.05 186.06 339.85 C 185.11 338.45 185.19 336.67 186.23 335.35 C 187.26 334.05 189.05 333.51 190.60 334.11 C 192.82 334.98 194.91 336.12 196.90 337.44 C 202.72 341.33 207.18 346.41 210.21 352.72 C 210.58 353.51 210.69 353.91 210.69 354.92 C 210.63 356.19 209.91 357.38 208.48 358.08 C 207.05 358.77 205.68 358.62 204.41 357.68 C 204.22 357.55 204.09 357.52 203.87 357.60 C 196.79 360.26 189.70 362.91 182.61 365.57 C 181.58 365.96 180.63 365.89 179.76 365.20 C 178.83 364.46 178.52 363.31 178.91 362.14 "/>
<path fill-rule="nonzero" fill="rgb(85.786438%, 13.197327%, 27.250671%)" fill-opacity="1" d="M 102.20 564.58 L 91.16 564.58 L 85.64 563.02 L 82.24 554.53 L 85.92 547.31 L 85.78 542.21 L 84.51 536.83 L 82.10 528.62 L 85.21 519.71 L 90.58 516.17 L 108.29 513.67 L 141.70 513.33 L 167.03 520.41 L 196.76 517.73 L 202.00 515.60 L 210.75 512.06 L 218.00 512.20 L 224.37 517.58 L 228.90 524.80 L 228.90 534.29 L 226.49 544.48 L 227.06 549.86 L 226.49 551.42 L 225.22 552.97 L 221.25 553.68 L 218.00 556.51 L 213.75 561.47 L 203.56 563.17 L 141.13 564.86 L 118.06 565.43 Z M 102.20 564.58 "/>
<path fill-rule="nonzero" fill="rgb(97.770691%, 69.985962%, 82.359314%)" fill-opacity="1" d="M 219.77 532.29 C 219.72 532.23 219.58 532.19 219.51 532.22 C 218.55 532.64 217.57 532.69 216.54 532.44 C 217.00 533.02 217.48 533.57 217.96 534.10 C 218.02 534.16 218.16 534.19 218.23 534.16 C 219.03 533.89 219.83 533.61 220.68 533.31 C 220.35 532.94 220.07 532.61 219.77 532.29 "/>
<path fill-rule="nonzero" fill="rgb(97.770691%, 69.985962%, 82.359314%)" fill-opacity="1" d="M 212.25 535.79 C 211.88 535.26 211.51 535.01 210.75 535.19 C 210.00 535.37 209.16 535.19 208.39 535.17 C 208.84 535.69 209.36 536.30 209.89 536.89 C 209.95 536.96 210.10 537.00 210.18 536.98 C 210.96 536.72 211.73 536.44 212.55 536.16 C 212.43 536.01 212.33 535.91 212.25 535.79 "/>
<path fill-rule="nonzero" fill="rgb(97.770691%, 69.985962%, 82.359314%)" fill-opacity="1" d="M 213.69 537.44 C 213.64 537.37 213.48 537.33 213.40 537.35 C 212.61 537.62 211.83 537.89 211.00 538.19 C 211.48 538.75 211.93 539.27 212.39 539.78 C 212.43 539.83 212.54 539.87 212.60 539.85 C 213.41 539.58 214.22 539.29 215.08 538.99 C 214.58 538.44 214.15 537.93 213.69 537.44 "/>
<path fill-rule="nonzero" fill="rgb(97.770691%, 69.985962%, 82.359314%)" fill-opacity="1" d="M 214.33 532.62 C 213.77 533.10 213.24 533.61 212.67 534.14 C 213.12 534.64 213.50 535.08 213.90 535.51 C 213.96 535.57 214.11 535.60 214.20 535.57 C 214.99 535.31 215.77 535.03 216.62 534.73 C 215.97 533.99 215.38 533.31 214.76 532.65 C 214.69 532.57 214.41 532.55 214.33 532.62 "/>
<path fill-rule="nonzero" fill="rgb(97.770691%, 69.985962%, 82.359314%)" fill-opacity="1" d="M 220.77 531.27 C 220.97 531.5 221.14 531.69 221.40 531.98 C 221.42 531.41 221.44 530.96 221.46 530.51 C 221.43 530.50 221.40 530.48 221.37 530.47 C 221.17 530.73 220.98 531.00 220.77 531.27 "/>
<path fill-rule="nonzero" fill="rgb(97.770691%, 69.985962%, 82.359314%)" fill-opacity="1" d="M 220.62 537.10 C 220.82 536.98 221.17 536.87 221.18 536.73 C 221.27 536.03 221.27 535.33 221.30 534.61 C 220.54 534.88 219.84 535.12 219.10 535.39 C 219.61 535.96 220.09 536.51 220.62 537.10 "/>
<path fill-rule="nonzero" fill="rgb(97.770691%, 69.985962%, 82.359314%)" fill-opacity="1" d="M 220.94 543.46 C 220.96 542.95 220.97 542.58 220.99 542.18 C 220.67 542.29 220.40 542.39 220.08 542.5 C 220.36 542.81 220.60 543.08 220.94 543.46 "/>
<path fill-rule="nonzero" fill="rgb(97.770691%, 69.985962%, 82.359314%)" fill-opacity="1" d="M 220.15 538.75 C 220.10 538.73 220.04 538.75 219.98 538.77 C 219.19 539.05 218.39 539.33 217.54 539.62 C 218.03 540.17 218.47 540.69 218.94 541.18 C 219.01 541.25 219.20 541.26 219.32 541.23 C 219.82 541.07 220.31 540.89 220.80 540.71 C 220.89 540.68 221.00 540.63 221.05 540.56 C 221.26 540.16 220.61 538.85 220.15 538.75 "/>
<path fill-rule="nonzero" fill="rgb(97.770691%, 69.985962%, 82.359314%)" fill-opacity="1" d="M 239.96 532.26 C 239.96 529.37 237.78 526.99 234.96 526.69 C 237.25 525.01 237.95 521.86 236.50 519.35 C 235.06 516.85 231.97 515.88 229.38 517.02 C 230.52 514.43 229.55 511.35 227.05 509.90 C 224.55 508.45 221.39 509.16 219.72 511.44 C 219.41 508.63 217.03 506.44 214.14 506.44 C 211.25 506.44 208.86 508.63 208.56 511.44 C 206.89 509.16 203.73 508.45 201.22 509.90 C 199.14 511.10 198.12 513.44 198.5 515.69 L 196.46 513.50 L 167.99 514.36 L 126.41 508.32 L 86.89 513.15 L 78.09 529.37 L 78.09 533.69 L 83.79 542.83 L 81.54 546.80 L 75.85 562.16 L 89.14 572.68 L 132.79 566.99 L 172.13 566.99 L 219.41 563.71 L 222.25 555.01 C 223.77 555.59 225.53 555.51 227.05 554.63 C 229.55 553.19 230.52 550.10 229.38 547.51 C 231.97 548.66 235.06 547.69 236.50 545.18 C 237.95 542.67 237.25 539.52 234.96 537.85 C 237.78 537.54 239.96 535.16 239.96 532.26 M 223.37 529.37 C 222.98 529.51 222.87 529.68 222.86 530.08 C 222.60 536.99 222.32 543.90 222.04 550.82 C 222.03 550.93 222.03 551.05 222.03 551.17 C 222.00 551.48 221.87 551.73 221.56 551.84 C 221.22 551.96 220.95 551.85 220.73 551.60 C 219.83 550.56 218.94 549.51 218.03 548.48 C 214.32 544.18 210.61 539.89 206.90 535.60 C 206.80 535.49 206.70 535.39 206.58 535.26 C 205.49 535.72 204.48 535.67 203.71 534.66 C 203.11 533.87 203.17 533.01 203.87 531.95 C 202.02 529.78 201.10 527.27 201.18 524.41 C 201.25 522.09 202.01 519.99 203.42 518.15 C 206.24 514.46 211.08 512.97 215.45 514.40 C 219.72 515.80 223.15 519.91 222.98 525.19 C 223.41 525.44 223.86 525.62 224.18 525.94 C 225.27 527.01 224.83 528.84 223.37 529.37 "/>
<path fill-rule="nonzero" fill="rgb(97.770691%, 69.985962%, 82.359314%)" fill-opacity="1" d="M 222.56 526.70 C 221.67 526.79 221.43 526.55 221.52 525.65 C 221.70 523.75 221.35 521.94 220.43 520.26 C 217.92 515.71 212.51 514.01 207.83 516.27 C 202.16 519.02 200.80 526.78 205.20 531.30 C 205.88 532.00 205.87 532.27 205.10 532.83 C 204.78 533.07 204.62 533.34 204.79 533.73 C 204.95 534.07 205.31 534.20 205.73 534.07 C 206.19 533.91 206.65 533.77 207.10 533.58 C 207.65 533.34 208.15 533.39 208.70 533.62 C 210.06 534.20 211.11 533.91 212.07 532.80 C 212.42 532.39 212.79 531.98 213.21 531.65 C 214.37 530.75 215.68 530.71 217.06 531.02 C 218.59 531.37 219.66 530.84 220.32 529.43 C 220.49 529.05 220.75 528.78 221.16 528.67 C 221.40 528.60 221.64 528.50 221.87 528.42 C 221.87 528.42 221.87 528.42 221.87 528.42 C 222.21 528.30 222.57 528.19 222.90 528.05 C 223.27 527.89 223.46 527.51 223.35 527.19 C 223.22 526.82 222.94 526.66 222.56 526.70 "/>
<path fill-rule="nonzero" fill="rgb(97.770691%, 69.985962%, 82.359314%)" fill-opacity="1" d="M 216.23 540.29 C 216.16 540.22 215.99 540.18 215.90 540.21 C 215.11 540.47 214.32 540.75 213.48 541.05 C 213.96 541.60 214.38 542.10 214.82 542.58 C 214.88 542.66 215.03 542.73 215.10 542.70 C 215.92 542.43 216.74 542.14 217.61 541.83 C 217.12 541.28 216.68 540.78 216.23 540.29 "/>
<path fill-rule="nonzero" fill="rgb(97.770691%, 69.985962%, 82.359314%)" fill-opacity="1" d="M 218.71 543.08 C 218.66 543.03 218.52 543.01 218.44 543.04 C 217.63 543.32 216.82 543.60 215.96 543.91 C 216.44 544.46 216.87 544.98 217.33 545.48 C 217.39 545.55 217.57 545.57 217.67 545.53 C 218.46 545.27 219.24 544.99 220.13 544.68 C 219.64 544.12 219.18 543.60 218.71 543.08 "/>
<path fill-rule="nonzero" fill="rgb(97.770691%, 69.985962%, 82.359314%)" fill-opacity="1" d="M 217.41 535.95 C 216.64 536.21 215.87 536.48 215.01 536.78 C 215.51 537.35 215.96 537.86 216.42 538.36 C 216.48 538.42 216.64 538.44 216.73 538.41 C 217.51 538.15 218.29 537.87 219.14 537.57 C 218.65 537.01 218.19 536.49 217.72 535.98 C 217.67 535.92 217.50 535.92 217.41 535.95 "/>
<path fill-rule="nonzero" fill="rgb(97.770691%, 69.985962%, 82.359314%)" fill-opacity="1" d="M 220.70 549.39 C 220.75 548.17 220.80 547.07 220.84 545.94 C 220.03 546.23 219.26 546.5 218.44 546.78 C 219.19 547.64 219.91 548.47 220.70 549.39 "/>
<path fill-rule="nonzero" fill="rgb(85.786438%, 13.197327%, 27.250671%)" fill-opacity="1" d="M 423.22 532.98 C 425.04 532.72 426.87 532.47 428.69 532.21 C 428.80 532.21 428.91 532.20 429.01 532.19 C 429.71 532.16 430.41 532.06 431.10 532.10 C 432.94 532.21 434.32 533.07 435.19 534.71 C 435.61 535.50 435.81 536.37 435.93 537.25 C 436.23 539.35 436.54 541.44 436.81 543.55 C 436.90 544.21 436.95 544.89 436.91 545.56 C 436.82 547.36 435.99 548.75 434.40 549.64 C 433.63 550.07 432.78 550.27 431.92 550.40 C 430 550.69 428.07 550.98 426.13 551.24 C 425.18 551.37 424.22 551.50 423.25 551.41 C 421.69 551.25 420.44 550.55 419.57 549.23 C 419.03 548.41 418.78 547.49 418.63 546.53 C 418.33 544.56 418.03 542.58 417.77 540.60 C 417.66 539.76 417.59 538.92 417.60 538.08 C 417.61 536.77 418.08 535.62 419.01 534.69 C 419.82 533.89 420.82 533.47 421.91 533.24 C 422.34 533.14 422.78 533.07 423.22 532.98 M 428.32 549.30 C 428.32 549.29 428.32 549.28 428.32 549.27 C 428.80 549.20 429.28 549.15 429.76 549.06 C 430.80 548.88 431.85 548.75 432.87 548.47 C 434.25 548.09 435.08 547.14 435.23 545.69 C 435.29 545.11 435.25 544.50 435.18 543.91 C 434.98 542.21 434.75 540.52 434.50 538.83 C 434.37 537.94 434.21 537.05 433.99 536.19 C 433.60 534.74 432.54 533.87 431.03 533.78 C 430.39 533.75 429.73 533.80 429.09 533.88 C 427.38 534.09 425.67 534.33 423.97 534.59 C 423.17 534.71 422.35 534.85 421.57 535.08 C 420.20 535.48 419.37 536.53 419.29 537.94 C 419.25 538.56 419.30 539.19 419.37 539.80 C 419.54 541.28 419.74 542.76 419.96 544.24 C 420.12 545.26 420.29 546.28 420.53 547.29 C 420.78 548.32 421.40 549.11 422.42 549.52 C 423.04 549.77 423.69 549.82 424.35 549.75 C 425.67 549.61 427 549.45 428.32 549.30 "/>
<path fill-rule="nonzero" fill="rgb(85.786438%, 13.197327%, 27.250671%)" fill-opacity="1" d="M 422.55 542.42 C 422.18 539.83 424.00 537.42 426.60 537.05 C 429.19 536.69 431.58 538.48 431.96 541.08 C 432.34 543.67 430.53 546.09 427.93 546.46 C 425.34 546.83 422.93 545.02 422.55 542.42 M 424.21 542.18 C 424.44 543.87 426 545.04 427.68 544.80 C 429.37 544.57 430.54 543.03 430.31 541.34 C 430.08 539.64 428.52 538.47 426.83 538.71 C 425.14 538.94 423.98 540.5 424.21 542.18 "/>
<path fill-rule="nonzero" fill="rgb(85.786438%, 13.197327%, 27.250671%)" fill-opacity="1" d="M 432.56 536.01 C 432.65 536.62 432.24 537.18 431.64 537.27 C 431.03 537.36 430.46 536.94 430.37 536.34 C 430.28 535.73 430.69 535.17 431.30 535.08 C 431.91 534.99 432.47 535.40 432.56 536.01 "/>
<path fill-rule="nonzero" fill="rgb(97.770691%, 69.985962%, 82.359314%)" fill-opacity="1" d="M 265.06 732.84 L 312.91 724.63 L 323.67 726.61 L 326.50 742.47 L 319.42 745.01 L 265.35 736.80 Z M 265.06 732.84 "/>
<path fill-rule="nonzero" fill="rgb(85.786438%, 13.197327%, 27.250671%)" fill-opacity="1" stroke-width="6" stroke-linecap="butt" stroke-linejoin="miter" stroke="rgb(97.770691%, 69.985962%, 82.359314%)" stroke-opacity="1" stroke-miterlimit="4" d="M -0.00 0.00 L 47.90 8.22 L 58.67 6.23 L 61.51 -9.63 L 54.42 -12.18 L 0.28 -3.96 Z M -0.00 0.00 " transform="matrix(0.998785, 0, 0, -0.998785, 257.356292, 723.856686)"/>
<path fill-rule="nonzero" fill="rgb(85.786438%, 13.197327%, 27.250671%)" fill-opacity="1" d="M 382.91 551.91 C 378.37 551.91 374.68 555.59 374.68 560.14 C 374.68 564.68 378.37 568.36 382.91 568.36 L 492.16 568.36 C 496.71 568.36 500.39 564.68 500.39 560.14 C 500.39 555.59 496.71 551.91 492.16 551.91 Z M 382.91 551.91 "/>
<path fill-rule="nonzero" fill="rgb(85.786438%, 13.197327%, 27.250671%)" fill-opacity="1" d="M 491.46 420.98 C 492.95 421.39 493.88 422.68 494.39 424.07 L 494.44 424.07 C 496.13 423.17 498.38 422.93 499.67 424.65 C 500.56 425.83 500.58 427.67 499.97 428.99 C 498.99 431.10 495.20 433.03 493.13 433.98 C 492.60 434.23 491.32 434.84 490.78 434.82 C 489.92 434.78 489.61 434.23 489.28 433.55 C 488.18 431.32 486.51 427.07 486.85 424.60 C 487.14 422.57 489.27 420.39 491.46 420.98 "/>
<path fill-rule="nonzero" fill="rgb(85.786438%, 13.197327%, 27.250671%)" fill-opacity="1" d="M 447.69 533.74 L 448.51 534 C 451.91 535.19 454.21 538.57 454.05 542.17 C 454.04 542.37 454.00 542.58 454.01 542.78 L 453.84 543.77 C 453.75 543.95 453.72 544.18 453.66 544.37 C 452.69 547.48 449.84 549.79 446.62 550.11 L 447.69 544.07 L 449.44 544.38 L 450.06 542.37 L 448.05 542.02 L 448.34 540.37 C 448.35 540.28 448.55 540.02 448.64 539.96 C 448.73 539.91 449.05 539.82 449.14 539.84 L 450.53 540.08 L 450.86 538.23 L 449.93 538 C 448.85 537.76 447.76 537.66 446.93 538.53 C 446.71 538.76 446.34 539.34 446.29 539.65 L 445.94 541.60 L 445.89 541.64 L 444.17 541.34 L 443.82 543.39 L 445.57 543.69 L 444.42 550.06 L 443.78 549.94 C 443.60 549.86 443.39 549.83 443.21 549.77 C 439.67 548.66 437.26 545.21 437.42 541.51 C 437.43 541.32 437.48 541.10 437.46 540.91 C 437.53 540.58 437.56 540.22 437.64 539.89 C 438.59 535.87 442.57 533.08 446.67 533.56 Z M 447.69 533.74 "/>
<path fill-rule="nonzero" fill="rgb(85.786438%, 13.197327%, 27.250671%)" fill-opacity="1" d="M 383.31 454.79 L 357.29 460.42 L 355.29 496.81 L 383.00 500.51 L 510.89 491.84 L 520.73 470.66 L 508.66 445.50 L 427.02 452.69 Z M 383.31 454.79 "/>
<path fill-rule="nonzero" fill="rgb(85.786438%, 13.197327%, 27.250671%)" fill-opacity="1" d="M 367.21 463.05 C 367.24 463.05 367.27 463.01 367.27 462.98 C 367.26 462.94 367.24 462.92 367.20 462.92 C 367.17 462.92 367.14 462.95 367.14 462.99 C 367.14 463.02 367.17 463.05 367.21 463.05 "/>
<path fill="none" stroke-width="3.18" stroke-linecap="butt" stroke-linejoin="miter" stroke="rgb(97.770691%, 69.985962%, 82.359314%)" stroke-opacity="1" stroke-miterlimit="4" d="M 0.00 0.00 C 0.03 0.00 0.06 0.03 0.06 0.06 C 0.05 0.10 0.02 0.12 -0.00 0.12 C -0.04 0.12 -0.06 0.09 -0.06 0.05 C -0.06 0.02 -0.03 -0.00 0.00 0.00 Z M 0.00 0.00 " transform="matrix(0.998785, 0, 0, -0.998785, 367.21308, 463.050989)"/>
<path fill-rule="nonzero" fill="rgb(85.786438%, 13.197327%, 27.250671%)" fill-opacity="1" d="M 362.34 491.93 C 362.37 491.93 362.40 491.90 362.40 491.87 C 362.39 491.83 362.37 491.80 362.33 491.81 C 362.30 491.81 362.27 491.84 362.27 491.87 C 362.27 491.91 362.30 491.93 362.34 491.93 "/>
<path fill="none" stroke-width="3.18" stroke-linecap="butt" stroke-linejoin="miter" stroke="rgb(97.770691%, 69.985962%, 82.359314%)" stroke-opacity="1" stroke-miterlimit="4" d="M 0.00 -0.00 C 0.03 0.00 0.06 0.03 0.06 0.06 C 0.05 0.10 0.02 0.12 -0.00 0.12 C -0.04 0.12 -0.06 0.09 -0.06 0.06 C -0.06 0.02 -0.03 -0.00 0.00 -0.00 Z M 0.00 -0.00 " transform="matrix(0.998785, 0, 0, -0.998785, 362.342004, 491.936357)"/>
<path fill-rule="nonzero" fill="rgb(85.786438%, 13.197327%, 27.250671%)" fill-opacity="1" d="M 507.39 489.03 C 507.43 489.03 507.46 489.00 507.46 488.97 C 507.45 488.93 507.42 488.91 507.39 488.91 C 507.35 488.91 507.33 488.94 507.33 488.97 C 507.33 489.01 507.36 489.03 507.39 489.03 "/>
<path fill="none" stroke-width="3.18" stroke-linecap="butt" stroke-linejoin="miter" stroke="rgb(97.770691%, 69.985962%, 82.359314%)" stroke-opacity="1" stroke-miterlimit="4" d="M -0.00 0.00 C 0.03 0.00 0.06 0.03 0.06 0.06 C 0.05 0.09 0.02 0.12 -0.00 0.12 C -0.04 0.12 -0.06 0.09 -0.06 0.06 C -0.06 0.02 -0.03 -0.00 -0.00 0.00 Z M -0.00 0.00 " transform="matrix(0.998785, 0, 0, -0.998785, 507.400078, 489.036684)"/>
<path fill-rule="nonzero" fill="rgb(85.786438%, 13.197327%, 27.250671%)" fill-opacity="1" d="M 505.86 450.62 C 505.90 450.61 505.92 450.58 505.92 450.55 C 505.92 450.51 505.89 450.49 505.86 450.49 C 505.82 450.49 505.80 450.52 505.80 450.56 C 505.80 450.59 505.83 450.62 505.86 450.62 "/>
<path fill="none" stroke-width="3.18" stroke-linecap="butt" stroke-linejoin="miter" stroke="rgb(97.770691%, 69.985962%, 82.359314%)" stroke-opacity="1" stroke-miterlimit="4" d="M -0.00 -0.00 C 0.03 0.00 0.06 0.03 0.05 0.06 C 0.05 0.10 0.03 0.12 -0.00 0.12 C -0.03 0.12 -0.06 0.09 -0.06 0.05 C -0.06 0.02 -0.03 -0.00 -0.00 -0.00 Z M -0.00 -0.00 " transform="matrix(0.998785, 0, 0, -0.998785, 505.867642, 450.620607)"/>
<path fill-rule="nonzero" fill="rgb(97.770691%, 69.985962%, 82.359314%)" fill-opacity="1" d="M 513.92 778.57 C 513.70 778.60 513.64 778.10 513.73 777.08 C 513.69 775.96 513.59 774.34 513.43 772.23 C 513.25 770.01 513.20 768.78 513.28 768.54 C 513.29 767.75 513.16 766.11 512.89 763.62 C 512.62 761.12 512.40 759.61 512.22 759.07 C 511.57 757.58 510.5 755.78 508.99 753.67 C 507.48 751.57 506.08 749.92 504.81 748.75 C 504.03 747.95 502.79 747.46 501.08 747.29 C 499.37 747.12 498.5 747.04 498.44 747.05 C 498.38 747.05 498.40 747.39 498.49 748.05 C 499.25 751.32 500.03 755.58 500.83 760.81 C 501.62 766.05 501.93 768.84 501.76 769.20 C 501.77 769.32 501.88 770.62 502.10 773.12 C 502.31 775.62 502.40 777.16 502.36 777.72 C 502.30 778.97 502.56 781.35 503.13 784.87 C 503.29 786.08 503.44 786.80 503.58 787.00 C 503.71 787.21 504.03 787.51 504.53 787.89 C 505.50 788.44 506.77 788.72 508.35 788.74 C 509.92 788.76 510.90 788.52 511.28 788.02 C 511.57 787.64 512.14 786.44 513.00 784.42 C 513.86 782.40 514.28 780.91 514.27 779.96 C 514.26 779.01 514.14 778.54 513.92 778.57 "/>
<path fill-rule="nonzero" fill="rgb(97.770691%, 69.985962%, 82.359314%)" fill-opacity="1" d="M 501.73 719.39 C 502.71 717.07 503.02 714.92 502.66 712.95 C 502.30 711.09 501.24 709.43 499.48 707.97 C 497.23 706.24 495.80 705.59 495.18 706.01 C 494.99 706.26 494.5 706.35 493.70 706.28 C 492.91 706.22 492.49 706.22 492.44 706.28 C 492.39 706.34 492.74 709.64 493.48 716.17 L 494.57 725.81 L 495.54 725.51 C 496.30 725.30 496.99 724.99 497.61 724.57 C 499.37 723.44 500.74 721.71 501.73 719.39 "/>
<g clip-path="url(#clip-1)">
<path fill-rule="nonzero" fill="rgb(97.770691%, 69.985962%, 82.359314%)" fill-opacity="1" d="M 576.82 750.52 L 595.18 735.21 L 572.99 726.33 L 585.73 706.10 L 561.87 704.52 L 567.74 681.34 L 544.56 687.20 L 542.97 663.35 L 522.75 676.09 L 513.87 653.90 L 498.56 672.26 L 483.26 653.90 L 474.38 676.09 L 454.15 663.35 L 452.56 687.20 L 429.39 681.34 L 435.25 704.52 L 411.40 706.10 L 424.13 726.33 L 401.94 735.21 L 420.30 750.52 L 401.94 765.82 L 424.13 774.70 L 411.40 794.93 L 435.25 796.52 L 429.39 819.69 L 452.56 813.83 L 454.15 837.68 L 474.38 824.95 L 483.26 847.14 L 498.56 828.78 L 513.87 847.14 L 522.75 824.95 L 542.97 837.68 L 544.56 813.83 L 567.74 819.69 L 561.87 796.52 L 585.73 794.93 L 572.99 774.70 L 595.18 765.82 Z M 548.42 778.44 C 548.30 780.15 548.17 781.23 548.00 781.70 C 547.82 782.07 547.74 782.47 547.74 782.92 C 547.74 783.37 547.59 784.32 547.27 785.76 C 546.96 787.21 546.91 787.91 547.13 787.89 C 547.25 787.98 547.25 788.41 547.12 789.15 C 547 789.90 546.80 790.51 546.52 791.00 C 546.24 791.37 545.91 791.92 545.56 792.64 C 544.96 794.07 544.28 794.89 543.52 795.10 C 542.98 795.28 542.07 795.57 540.78 795.96 C 539.5 796.47 538.67 797.03 538.30 797.64 C 537.35 799.00 534.35 800.46 529.28 802.02 C 527.44 802.59 525.50 803.01 523.46 803.28 C 521.42 803.55 520.17 803.60 519.70 803.44 C 519.23 803.28 518.5 803.26 517.50 803.39 C 516.51 803.52 515.81 803.78 515.41 804.17 C 515.10 804.32 513.90 804.62 511.83 805.05 C 509.75 805.5 508.64 805.61 508.51 805.41 C 508.39 805.42 505.82 805.73 500.80 806.33 C 495.77 806.93 492.74 807.16 491.71 807.01 C 490.68 806.87 489.48 806.94 488.12 807.23 C 486.75 807.52 485.29 807.68 483.72 807.72 C 482.16 807.75 480.39 808.01 478.44 808.49 C 476.48 808.98 475.09 809.10 474.28 808.87 C 472.20 808.46 470.97 807.61 470.58 806.32 C 470.36 805.56 470.76 804.33 471.78 802.62 C 472.80 801.03 473.44 799.87 473.68 799.17 C 473.92 798.46 474.20 797.14 474.51 795.18 C 475.05 791.63 475.26 788.68 475.12 786.33 C 474.98 784 474.30 779.03 473.09 771.43 C 471.51 761.97 470.09 754.91 468.81 750.25 C 466.14 740.14 464.55 730.52 464.02 721.37 C 463.75 716.69 463.19 712.83 462.34 709.79 C 461.69 707.41 461.15 705.84 460.72 705.11 C 460.29 704.39 459.59 703.80 458.64 703.36 C 456.85 702.58 456.10 701.50 456.36 700.12 C 456.50 699.43 456.66 698.96 456.85 698.71 C 457.25 698.32 459.37 697.82 463.22 697.20 C 465.98 696.84 469.42 696.11 473.54 695.01 C 474.08 694.83 476.65 694.32 481.26 693.5 C 489.60 692.07 495.33 691.71 498.46 692.43 C 499.26 692.55 501.39 692.55 504.86 692.44 C 513.42 691.88 518.51 692.11 520.10 693.14 C 521.93 694.25 523.32 695.42 524.26 696.64 C 524.82 697.47 525.43 698.26 526.09 699.02 C 526.75 699.78 527.74 701.33 529.05 703.69 C 530.37 706.04 530.90 707.46 530.62 707.95 C 530.35 708.44 530.34 709.23 530.59 710.31 C 530.85 711.41 530.98 712.45 531.01 713.46 C 530.74 715.75 529.82 718.51 528.22 721.75 C 527.87 722.58 527.30 723.55 526.5 724.67 C 525.69 725.79 525.17 726.36 524.95 726.39 C 524.84 726.41 524.54 726.67 524.04 727.18 C 523.47 727.93 522.64 728.63 521.54 729.28 C 520.45 729.93 519.57 730.30 518.91 730.38 L 517.94 730.68 C 518.20 730.98 520.09 731.69 523.60 732.80 C 524.41 733.03 526.22 733.95 529.01 735.55 C 531.80 737.16 533.57 738.25 534.32 738.82 C 534.69 739.11 534.98 739.32 535.16 739.47 C 535.35 739.61 535.50 739.73 535.63 739.83 C 536.14 740.33 536.46 740.82 536.58 741.30 C 536.70 741.80 537.14 742.33 537.88 742.91 C 538.63 743.48 539.29 744.24 539.86 745.17 C 540.91 747.17 541.93 750.25 542.92 754.39 C 543.14 755.26 543.43 755.69 543.76 755.71 C 544.10 755.72 544.35 755.91 544.51 756.28 C 544.67 756.66 545.05 757.82 545.64 759.76 C 546.29 762.15 546.63 765.19 546.67 768.90 C 546.69 769.91 546.94 770.55 547.42 770.82 C 547.92 771.21 548.26 772.51 548.44 774.73 C 548.54 775.51 548.53 776.75 548.42 778.44 "/>
</g>
<path fill-rule="nonzero" fill="rgb(97.770691%, 69.985962%, 82.359314%)" fill-opacity="1" d="M 514.69 731.61 C 514.80 731.59 514.91 731.58 515.02 731.57 L 515.35 731.52 C 515.12 731.44 514.89 731.47 514.69 731.61 "/>
<!-- banner diamonds (not exported by pdftocairo) -->
<path fill="rgb(97.77%, 69.98%, 82.35%)" d="M 367.5 461.1 L 369.7 463.3 L 367.5 465.5 L 365.3 463.3 Z"/><path fill="rgb(97.77%, 69.98%, 82.35%)" d="M 362.5 489.6 L 364.7 491.8 L 362.5 494.0 L 360.3 491.8 Z"/><path fill="rgb(97.77%, 69.98%, 82.35%)" d="M 506 448.8 L 508.2 451 L 506 453.2 L 503.8 451 Z"/><path fill="rgb(97.77%, 69.98%, 82.35%)" d="M 507.5 485.3 L 509.7 487.5 L 507.5 489.7 L 505.3 487.5 Z"/>
</svg>
